# xmcd
#
# Track frame offsets:
#	150
#	14011
#	29010
#	42876
#	54268
#	69494
#	83508
#	96502
#	112132
#	125167
#	139767
#	161443
#	177953
#	194576
#	203564
#	228388
#	237492
#
# Disc length: 3351 seconds
#
# Revision: 0
# Processed by: cddbd v1.5.2PL0 Copyright (c) Steve Scherf et al.
# Submitted via: EasyCDDAExtractor 16.0.6.1
#
DISCID=f30d1511
DTITLE=Ξυλούρης Νίκος - Ο Ν. Ξυλούρης τραγουδά μεγ. επιτυχίες του 3
DYEAR=2010
DGENRE=Κρητική
TTITLE0=Ξυλούρης Νίκος - Εγώ 'μαι του μπαξέ πουλί [συρτός, Νίκος κ Γιάννης Ξυλ
TTITLE0=ούρης]
TTITLE1=Ξυλούρης Νίκος - Μην περιμένεις τον καιρό [συρτός, Νίκος Ξυλούρης]
TTITLE2=Ξυλούρης Νίκος - Η κακομοίρα η μάννα μου [συρτός, Γιάννης Ξυλούρης]
TTITLE3=Άνευ ερμηνευτού - Πηδηχτός πεντοζάλης [Γιώργος Καλογρίδης-Βαγγ.Μαρκογι
TTITLE3=αννάκης]
TTITLE4=Ξυλούρης Νίκος - Ήρθες αργά, δεν πρόλαβες [συρτός, Νίκος Ξυλούρης]
TTITLE5=Ξυλούρης Νίκος - Έφυγες δίχως αφορμή [Νίκος κ Γιάννης Ξυλούρης]
TTITLE6=Μπριλάκη Ειρήνη-Καλογρίδης Γιώργος - Τρώτε και πίνετ' άρχοντες [ριζίτι
TTITLE6=κο, Παντ. Καβακόπουλος]
TTITLE7=Καλογρίδης Γιώργος - Κρητικά πεντοζάλια [Βαγγ. Μαρκογιαννάκης]
TTITLE8=Ξυλούρης Νίκος-χορωδία - Κρητικοπούλα μου [καλαματιανός, Νίκος Ξυλούρη
TTITLE8=ς]
TTITLE9=Άνευ ερμηνευτού - Μαλεβιζιώτικος χορός [Νίκος Ξυλούρης, λύρα ίδιος]
TTITLE10=Ψαραντώνης - Ο πραματευτής
TTITLE11=Λιδάκης Μανώλης - Πώς να σωπάσω
TTITLE12=Ξυλούρης Γιάννης - Φιλεντέμ
TTITLE13=Ξυλούρης Γιώργης - Ο ανδρειωμένος
TTITLE14=Σταυρακάκης Βασίλης - Απ' των Χανιώ την πόρτα
TTITLE15=Ψαραντώνης - Δεν κλαίνε οι δυνατές καρδιές
TTITLE16=Πυθαρούλης Βαγγέλης - Αγρίμια κι αγριμάκια μου
EXTD=
EXTT0=
EXTT1=
EXTT2=
EXTT3=
EXTT4=
EXTT5=
EXTT6=
EXTT7=
EXTT8=
EXTT9=
EXTT10=
EXTT11=
EXTT12=
EXTT13=
EXTT14=
EXTT15=
EXTT16=
PLAYORDER=
